<svg xmlns="http://www.w3.org/2000/svg" viewBox="0 0 240 240"><g style="isolation:isolate"><path d="M60.88,185.7h3.85c4.09,0,6.79,2,6.79,6.63s-2.7,6.77-6.61,6.77h-4Zm3.66,10.8c2.16,0,3.69-1,3.69-4.17s-1.53-4.07-3.69-4.07H64.1v8.24Z" style="fill:#595959"/><path d="M74,185.7h3.86c4.08,0,6.78,2,6.78,6.63s-2.7,6.77-6.6,6.77H74Zm3.66,10.8c2.16,0,3.69-1,3.69-4.17s-1.53-4.07-3.69-4.07h-.43v8.24Z" style="fill:#595959"/><path d="M90.4,197.42l1.82-2.21a5.42,5.42,0,0,0,3.26,1.37c1.19,0,1.74-.45,1.74-1.18s-.73-1-1.89-1.51l-1.71-.72a3.93,3.93,0,0,1-2.72-3.67c0-2.25,2-4.05,4.87-4.05a6.23,6.23,0,0,1,4.35,1.76l-1.6,2a4.33,4.33,0,0,0-2.75-1c-1,0-1.61.4-1.61,1.12s.85,1,2,1.49l1.67.67a3.7,3.7,0,0,1,2.65,3.67c0,2.24-1.87,4.2-5.11,4.2A7.5,7.5,0,0,1,90.4,197.42Z" style="fill:#595959"/><path d="M102.32,195.3v-4h-1.39V189l1.57-.13.36-2.7h2.66v2.7h2.41v2.5h-2.41v3.91c0,1.13.54,1.59,1.3,1.59a3.65,3.65,0,0,0,.93-.18l.51,2.3a7.59,7.59,0,0,1-2.32.38C103.36,199.35,102.32,197.73,102.32,195.3Z" style="fill:#595959"/><path d="M108.94,194a5,5,0,1,1,5,5.37A5,5,0,0,1,108.94,194Zm6.75,0c0-1.71-.54-2.79-1.73-2.79s-1.74,1.08-1.74,2.79.54,2.78,1.74,2.78S115.69,195.68,115.69,194Z" style="fill:#595959"/><path d="M121,188.85h2.61l.22,1.78h.07a3.5,3.5,0,0,1,2.92-2,3,3,0,0,1,1.24.21l-.54,2.76a4.2,4.2,0,0,0-1.12-.16,2.49,2.49,0,0,0-2.21,1.83v5.86H121Z" style="fill:#595959"/><path d="M129.19,202.84l.58-2.43a3.28,3.28,0,0,0,.68.13,1.64,1.64,0,0,0,1.71-1.23l.14-.52-3.92-9.94h3.22L133,193.1c.31.94.52,1.89.79,2.9h.09c.2-1,.44-1.93.67-2.9l1.19-4.25h3l-3.51,10.26c-1,2.63-2.11,3.93-4.54,3.93A4.84,4.84,0,0,1,129.19,202.84Z" style="fill:#595959"/><path d="M144.67,185.7h3.22v5.1h4.41v-5.1h3.19v13.4H152.3v-5.51h-4.41v5.51h-3.22Z" style="fill:#595959"/><path d="M158.24,195.19v-6.34h3.21v5.94c0,1.43.38,1.82,1.19,1.82a1.94,1.94,0,0,0,1.71-1v-6.72h3.2V199.1h-2.61l-.23-1.41h-.08a4,4,0,0,1-3.2,1.66C159.2,199.35,158.24,197.75,158.24,195.19Z" style="fill:#595959"/><path d="M173,198h-.07l-.26,1.1h-2.5V184.71h3.19v3.46l-.07,1.53a4,4,0,0,1,2.64-1.1c2.45,0,4,2.05,4,5.18,0,3.55-2.11,5.57-4.3,5.57A3.63,3.63,0,0,1,173,198Zm3.65-4.14c0-1.8-.52-2.65-1.65-2.65a2.2,2.2,0,0,0-1.64.86v4.06a2.22,2.22,0,0,0,1.53.59C175.81,196.72,176.6,195.91,176.6,193.86Z" style="fill:#595959"/></g><path d="M96.49,113.33c.52,1.2,1.26,3,2,5.35,1.8,5.6,1.09,6.17,2.61,9.21a16.19,16.19,0,0,0,6.62,7.12l.09.05a15.87,15.87,0,0,0,6.24,1.62c4.68.39,9,.46,9,.46s-6.79-10.85-16.41-18C103.34,116.64,101.34,114.6,96.49,113.33Z" style="fill:#d9d9d9"/><path d="M96.49,113.33s14.93-3.08,23.43,3.88,3.15,19.93,3.15,19.93S111.32,118.87,96.49,113.33Z" style="fill:#d9d9d9"/><path d="M158.55,141.71,131.47,158a1.64,1.64,0,0,1-2.26-.56L126,152.14a1.62,1.62,0,0,1,.55-2.22l28.49-17.12a1.62,1.62,0,0,1,2.22.56l2.64.87C160,137,160.08,140.79,158.55,141.71Z" style="fill:#d9d9d9"/><circle cx="151.84" cy="56.8" r="7.83" style="fill:#d9d9d9"/><path d="M129.54,104.23h51.34a4.51,4.51,0,0,1,4.51,4.51v.46a4.45,4.45,0,0,1-4.45,4.45h-51.4a4.45,4.45,0,0,1-4.45-4.45v-.53a4.45,4.45,0,0,1,4.45-4.45Z" transform="translate(264.18 -46.3) rotate(90)" style="fill:#d9d9d9"/><path d="M109.72,46.37h39A4.23,4.23,0,0,1,153,50.59V51.7a4.2,4.2,0,0,1-4.2,4.2h-38.5a4.76,4.76,0,0,1-4.76-4.76v-.57a4.2,4.2,0,0,1,4.2-4.2Z" transform="translate(14.29 -27) rotate(12.62)" style="fill:#d9d9d9"/><path d="M115.32,48.13v25a3.58,3.58,0,0,1-3.59,3.59h-2.26a3.56,3.56,0,0,1-3.57-3.56V45.83a4,4,0,0,1,3.57-3.56h0A5.85,5.85,0,0,1,115.32,48.13Z" style="fill:#d9d9d9"/><path d="M109.69,72.71h46.39a4.19,4.19,0,0,1,4.19,4.19v1.17a4.16,4.16,0,0,1-4.16,4.16h-45.8a4.79,4.79,0,0,1-4.79-4.79v-.58a4.16,4.16,0,0,1,4.16-4.16Z" transform="translate(20.14 -27.17) rotate(12.62)" style="fill:#d9d9d9"/><path d="M137.93,93.51l-52.19-12a5.43,5.43,0,0,0-6.94,5.52v62.72a6.26,6.26,0,0,0,3,5l26.15,14a6.28,6.28,0,0,0,5.59-.13l26.05-15.58a6.34,6.34,0,0,0,2.76-4.87V99A6,6,0,0,0,137.93,93.51Zm-3.75,48.86a4.67,4.67,0,0,1-2.05,3.61l-19.36,11.59a4.68,4.68,0,0,1-4.16.09L89.18,147.23A4.63,4.63,0,0,1,87,143.52V96.9a4,4,0,0,1,5.15-4.11l38.8,8.9a4.42,4.42,0,0,1,3.27,4.11Z" style="fill:#d9d9d9"/><path d="M93.19,107.82c.52,1.2,1.26,3,2,5.34,1.81,5.61,1.09,6.18,2.62,9.22a16.19,16.19,0,0,0,6.61,7.12l.09,0a15.57,15.57,0,0,0,6.24,1.62c4.68.39,9,.46,9,.46s-6.78-10.85-16.41-18C100.05,111.12,98.05,109.08,93.19,107.82Z" style="fill:#a3bb6d"/><path d="M93.19,107.82s14.94-3.08,23.44,3.87,3.14,19.93,3.14,19.93S108,113.36,93.19,107.82Z" style="fill:#84aa42"/><path d="M155.25,136.19l-27.08,16.28a1.66,1.66,0,0,1-2.26-.57l-3.17-5.27a1.62,1.62,0,0,1,.55-2.22l28.49-17.12a1.62,1.62,0,0,1,2.22.55l2.64.87C156.65,131.45,156.78,135.28,155.25,136.19Z" style="fill:#494949"/><circle cx="148.54" cy="51.28" r="7.83" style="fill:#494949"/><path d="M126.24,98.72h51.34a4.51,4.51,0,0,1,4.51,4.51v.46a4.45,4.45,0,0,1-4.45,4.45h-51.4a4.45,4.45,0,0,1-4.45-4.45v-.53A4.45,4.45,0,0,1,126.24,98.72Z" transform="translate(255.37 -48.51) rotate(90)" style="fill:#494949"/><path d="M106.42,40.85h39a4.23,4.23,0,0,1,4.23,4.23v1.11a4.2,4.2,0,0,1-4.2,4.2H107a4.76,4.76,0,0,1-4.76-4.76V45A4.2,4.2,0,0,1,106.42,40.85Z" transform="translate(13.01 -26.42) rotate(12.62)" style="fill:#494949"/><path d="M112,42.61v25a3.59,3.59,0,0,1-3.59,3.59h-2.26a3.56,3.56,0,0,1-3.56-3.57V40.32a3.94,3.94,0,0,1,3.56-3.56h0A5.85,5.85,0,0,1,112,42.61Z" style="fill:#494949"/><path d="M106.39,67.2h46.39A4.19,4.19,0,0,1,157,71.39v1.17a4.16,4.16,0,0,1-4.16,4.16H107a4.79,4.79,0,0,1-4.79-4.79v-.58a4.16,4.16,0,0,1,4.16-4.16Z" transform="translate(18.85 -26.58) rotate(12.62)" style="fill:#494949"/><path d="M134.64,88,82.44,76a5.43,5.43,0,0,0-6.93,5.53v62.72a6.27,6.27,0,0,0,3,5l26.15,14a6.31,6.31,0,0,0,5.59-.13l26.05-15.58a6.31,6.31,0,0,0,2.76-4.87V93.52A6,6,0,0,0,134.64,88Zm-3.76,48.85a4.67,4.67,0,0,1-2,3.62l-19.36,11.58a4.68,4.68,0,0,1-4.16.1L85.88,141.72A4.66,4.66,0,0,1,83.66,138V91.39a4,4,0,0,1,5.16-4.11l38.79,8.9a4.42,4.42,0,0,1,3.27,4.1Z" style="fill:#494949"/></svg>